<svg width="210" height="48" fill="none" xmlns="http://www.w3.org/2000/svg"><path d="M29.266 33.09a2.434 2.434 0 0 1-2.25-1.505L25.578 28.1a2.434 2.434 0 0 0-2.25-1.506H13.264a2.434 2.434 0 0 0-2.268 1.55L9.671 31.54a2.434 2.434 0 0 1-2.268 1.55H3.722c-1.755 0-2.934-1.802-2.23-3.41L13.839 1.459A2.434 2.434 0 0 1 16.069 0h4.9c.971 0 1.849.576 2.234 1.467l12.222 28.222c.697 1.607-.482 3.402-2.233 3.402h-3.926Zm-8.638-18.294c-.79-2.091-3.743-2.102-4.548-.018l-.812 2.101a2.434 2.434 0 0 0 2.271 3.312h1.605a2.434 2.434 0 0 0 2.277-3.294l-.793-2.101Z" fill="#647B64"/><path d="M69.069 34.633c0 1.994-.357 3.817-1.072 5.468a11.842 11.842 0 0 1-2.974 4.207c-1.3 1.153-2.875 2.056-4.728 2.71-1.82.655-3.85.982-6.093.982-2.274 0-4.322-.327-6.141-.981-1.82-.655-3.364-1.558-4.63-2.711a12.134 12.134 0 0 1-2.925-4.207c-.683-1.651-1.024-3.474-1.024-5.468v-9.624a2.434 2.434 0 0 0-2.434-2.434H29.309a2.434 2.434 0 0 1-2.334-1.743l-1.092-3.684a2.434 2.434 0 0 1 2.334-3.127h17.117a2.434 2.434 0 0 1 2.434 2.435v17.523c0 .903.114 1.76.341 2.57.26.81.634 1.543 1.122 2.197.52.623 1.186 1.122 1.998 1.495.845.374 1.852.561 3.022.561 1.17 0 2.161-.187 2.973-.56.845-.374 1.528-.873 2.048-1.496a6.18 6.18 0 0 0 1.12-2.197c.228-.81.342-1.667.342-2.57V16.456a2.434 2.434 0 0 1 2.434-2.435h3.467a2.434 2.434 0 0 1 2.434 2.435v18.177ZM86.813 18.617a1.69 1.69 0 0 1 3.08.006l4.833 10.754a1.306 1.306 0 1 1-2.394 1.047l-.323-.76a2.554 2.554 0 0 0-2.35-1.555h-2.776a2.512 2.512 0 0 0-2.323 1.555l-.317.768a1.271 1.271 0 1 1-2.332-1.009l4.902-10.806Zm1.459 7.418a1.494 1.494 0 0 0 1.39-2.042c-.497-1.256-2.272-1.261-2.776-.008a1.494 1.494 0 0 0 1.386 2.05ZM95.795 19.315a1.308 1.308 0 1 1 2.512-.728l2.474 9.003c.003.012.013.02.025.02a.028.028 0 0 0 .026-.02l2.73-8.726a1.766 1.766 0 0 1 3.374.01l2.675 8.717a.025.025 0 0 0 .025.018.027.027 0 0 0 .026-.019l2.537-9.036a1.272 1.272 0 1 1 2.443.715l-3.284 10.77a1.667 1.667 0 0 1-3.178.03l-2.943-9.026a.027.027 0 0 0-.026-.02.028.028 0 0 0-.026.02l-2.943 9.027a1.667 1.667 0 0 1-3.178-.031l-3.27-10.724ZM116.823 20.625a3 3 0 0 1 3-3h5.335a1.056 1.056 0 0 1 0 2.113h-4.084a1.728 1.728 0 0 0 0 3.456h3.762a1.018 1.018 0 1 1 0 2.035h-3.57a1.92 1.92 0 0 0 0 3.84h4.233a1.076 1.076 0 1 1 0 2.15h-5.676a3 3 0 0 1-3-3v-7.594ZM137.136 19.56c-.457.48-1.255.444-1.85.153a4.754 4.754 0 0 0-.154-.072 3.352 3.352 0 0 0-1.462-.345 3.47 3.47 0 0 0-.881.115 2.432 2.432 0 0 0-.801.326 1.81 1.81 0 0 0-.601.577c-.147.23-.22.512-.22.844 0 .307.067.57.2.787.134.218.314.404.541.557.24.154.527.288.861.404.334.115.701.23 1.101.345.454.14.921.3 1.402.48.494.18.941.416 1.341.71.414.295.748.666 1.002 1.114.267.448.4 1.005.4 1.67 0 .73-.14 1.37-.42 1.92a4.002 4.002 0 0 1-1.122 1.345 4.852 4.852 0 0 1-1.642.806 7.18 7.18 0 0 1-1.982.269 7.86 7.86 0 0 1-2.703-.48 5.747 5.747 0 0 1-1.31-.69c-.519-.37-.47-1.112.005-1.538.508-.454 1.298-.359 1.875.005.142.089.292.17.451.245.587.269 1.161.403 1.722.403.294 0 .594-.032.901-.096.307-.077.581-.198.821-.365.254-.166.454-.37.601-.614.16-.256.24-.57.24-.94 0-.36-.087-.654-.26-.884a2.14 2.14 0 0 0-.701-.614 4.82 4.82 0 0 0-1.041-.461l-1.262-.403a12.83 12.83 0 0 1-1.281-.461 4.442 4.442 0 0 1-1.162-.71 3.573 3.573 0 0 1-.821-1.076c-.213-.435-.32-.973-.32-1.613 0-.69.147-1.286.441-1.785.307-.5.7-.909 1.181-1.229a5.21 5.21 0 0 1 1.662-.73 7.385 7.385 0 0 1 1.902-.25 6.91 6.91 0 0 1 2.183.366 5.78 5.78 0 0 1 1.021.442c.54.3.568 1.024.142 1.472ZM139.862 24.384c0-1.088.187-2.067.56-2.938a6.628 6.628 0 0 1 1.582-2.246 7.192 7.192 0 0 1 2.403-1.42c.934-.334 1.949-.5 3.044-.5 1.108 0 2.129.166 3.063.5a7.148 7.148 0 0 1 2.423 1.42 6.277 6.277 0 0 1 1.582 2.246c.387.87.581 1.85.581 2.938 0 1.062-.194 2.035-.581 2.918a6.707 6.707 0 0 1-1.582 2.266 7.488 7.488 0 0 1-2.423 1.478c-.934.346-1.955.519-3.063.519-1.095 0-2.11-.173-3.044-.519a7.545 7.545 0 0 1-2.403-1.478 7.109 7.109 0 0 1-1.582-2.266c-.373-.883-.56-1.856-.56-2.918Zm2.743 0c0 .73.113 1.401.34 2.016a4.877 4.877 0 0 0 1.002 1.574c.44.448.954.8 1.541 1.056a5.24 5.24 0 0 0 1.983.365c.721 0 1.381-.122 1.982-.365a4.582 4.582 0 0 0 1.542-1.056c.44-.448.774-.973 1.001-1.574.24-.614.36-1.287.36-2.016 0-.704-.12-1.357-.36-1.959a4.617 4.617 0 0 0-.981-1.574 4.582 4.582 0 0 0-1.542-1.056c-.601-.256-1.268-.384-2.002-.384-.735 0-1.402.128-2.003.384a4.637 4.637 0 0 0-1.521 1.056 4.877 4.877 0 0 0-1.002 1.575 5.503 5.503 0 0 0-.34 1.958ZM157.535 19.961a2.336 2.336 0 0 1 4.518-.832l3.101 8.126a.042.042 0 0 0 .04.028.044.044 0 0 0 .041-.028l3.061-8.113a2.345 2.345 0 0 1 4.537.827v9.999a1.251 1.251 0 1 1-2.503 0v-9.65a.023.023 0 0 0-.023-.024.025.025 0 0 0-.023.015l-3.977 10.092a1.29 1.29 0 0 1-2.404-.005l-3.919-10.087a.024.024 0 0 0-.046.01v9.699a1.201 1.201 0 1 1-2.403 0V19.96ZM175.955 20.625a3 3 0 0 1 3-3h5.336a1.056 1.056 0 0 1 0 2.113h-4.085a1.728 1.728 0 0 0 0 3.456h3.763a1.017 1.017 0 0 1 0 2.035h-3.571a1.92 1.92 0 0 0 0 3.84h4.234a1.075 1.075 0 1 1 0 2.15h-5.677a3 3 0 0 1-3-3v-7.594ZM204.476 26.227c0 .82-.147 1.562-.44 2.227a4.992 4.992 0 0 1-1.202 1.67c-.507.462-1.108.82-1.802 1.076a6.797 6.797 0 0 1-2.263.365 6.795 6.795 0 0 1-2.262-.365 5.682 5.682 0 0 1-1.822-1.075 4.992 4.992 0 0 1-1.202-1.67c-.28-.666-.42-1.409-.42-2.228v-7.34a1.262 1.262 0 0 1 2.523 0v7.244c0 .397.053.794.16 1.19.107.384.28.73.52 1.037.254.308.581.557.982.75.413.191.921.287 1.521.287.601 0 1.102-.096 1.502-.288.414-.192.741-.441.981-.749a2.78 2.78 0 0 0 .541-1.037c.107-.396.16-.793.16-1.19v-7.244a1.262 1.262 0 0 1 2.523 0v7.34ZM207.477 18.887a1.262 1.262 0 0 1 2.523 0v11.07a1.262 1.262 0 0 1-2.523 0v-11.07Z" fill="#647B64"/></svg>